<svg width="32" height="32" viewBox="0 0 32 32" fill="none" xmlns="http://www.w3.org/2000/svg">
<g clip-path="url(#clip0_1647_32011)">
<path opacity="0.2" d="M14.5 24.9995C20.299 24.9995 25 20.2985 25 14.4995C25 8.70052 20.299 3.99951 14.5 3.99951C8.70101 3.99951 4 8.70052 4 14.4995C4 20.2985 8.70101 24.9995 14.5 24.9995Z" fill="#0A65CC"/>
<path d="M10.5 14.5H18.5" stroke="#0A65CC" stroke-width="2" stroke-linecap="round" stroke-linejoin="round"/>
<path d="M14.5 10.5V18.5" stroke="#0A65CC" stroke-width="2" stroke-linecap="round" stroke-linejoin="round"/>
<path d="M14.5 24.9995C20.299 24.9995 25 20.2985 25 14.4995C25 8.70052 20.299 3.99951 14.5 3.99951C8.70101 3.99951 4 8.70052 4 14.4995C4 20.2985 8.70101 24.9995 14.5 24.9995Z" stroke="#0A65CC" stroke-width="2" stroke-linecap="round" stroke-linejoin="round"/>
<path d="M21.9219 21.9246L27.9969 27.9996" stroke="#0A65CC" stroke-width="2" stroke-linecap="round" stroke-linejoin="round"/>
</g>
<defs>
<clipPath id="clip0_1647_32011">
<rect width="32" height="32" fill="white"/>
</clipPath>
</defs>
</svg>
